<svg id="logo-white" viewBox="0 0 186 70" fill-rule="nonzero" width="100%" height="100%"> <path d="M113.387821,41.1888889 C112.188247,41.2564329 111.020012,40.7908927 110.195284,39.9166667 L111.799881,38.3333333 C112.193582,38.7984109 112.779132,39.0565343 113.387821,39.0333333 C114.570448,39.0333333 115.336657,38.3333333 115.336657,36.9055556 L115.336657,28.6666667 L117.762985,28.6666667 L117.762985,37 C117.762985,39.7444444 115.686448,41.1888889 113.387821,41.1888889 Z" fill="#FFFFFF"></path> <polygon fill="#FFFFFF" points="123.176418 41.1111111 123.176418 28.6666667 131.354866 28.6666667 131.354866 30.8277778 125.602746 30.8277778 125.602746 33.7388889 130.477612 33.7388889 130.477612 35.9055556 125.580537 35.9055556 125.580537 38.9222222 131.332657 38.9222222 131.332657 41.1111111"></polygon> <path d="M143.075642,41.1111111 L140.649313,36.1111111 L138.90591,36.1111111 L138.90591,41.1111111 L136.485134,41.1111111 L136.485134,28.6666667 L141.348896,28.6666667 C143.875164,28.6666667 145.374269,30.3888889 145.374269,32.4666667 C145.419401,33.9342861 144.499465,35.2586119 143.108955,35.7277778 L145.885075,41.0833333 L143.075642,41.1111111 Z M141.193433,30.8277778 L138.90591,30.8277778 L138.90591,34.1055556 L141.193433,34.1055556 C141.850535,34.2271221 142.516637,33.9439836 142.885384,33.386362 C143.25413,32.8287405 143.25413,32.1045928 142.885384,31.5469713 C142.516637,30.9893498 141.850535,30.7062113 141.193433,30.8277778 Z" fill="#FFFFFF"></path> <path d="M153.90806,41.1888889 C152.020299,41.1888889 150.576716,40.7888889 149.371881,39.5222222 L150.943164,37.95 C151.757821,38.6941718 152.840731,39.0734165 153.941373,39 C155.368299,39 156.134507,38.4444444 156.134507,37.4611111 C156.161332,37.074252 156.021969,36.6943117 155.751403,36.4166667 C155.440535,36.1513019 155.049293,35.9986262 154.640955,35.9833333 L153.141851,35.7722222 C152.250096,35.6937001 151.40631,35.3338067 150.732179,34.7444444 C150.112951,34.086387 149.791671,33.2023407 149.843821,32.3 C149.843821,30.0777778 151.481731,28.5333333 154.169015,28.5333333 C155.648027,28.4348853 157.101009,28.9584323 158.177731,29.9777778 L156.645313,31.5 C155.946807,30.8810113 155.027102,30.5722551 154.096836,30.6444444 C152.808716,30.6444444 152.181313,31.3555556 152.181313,32.2111111 C152.173615,32.545691 152.306552,32.8681556 152.547761,33.1 C152.872597,33.3755794 153.273355,33.5460516 153.697075,33.5888889 L155.162866,33.8 C156.035475,33.8586333 156.866356,34.1954674 157.533672,34.7611111 C158.208288,35.4655547 158.556725,36.4208026 158.494209,37.3944444 C158.510866,39.8277778 156.500955,41.1888889 153.90806,41.1888889 Z" fill="#FFFFFF"></path> <polygon fill="#FFFFFF" points="163.235821 41.1111111 163.235821 28.6666667 171.414269 28.6666667 171.414269 30.8277778 165.656597 30.8277778 165.656597 33.7388889 170.559224 33.7388889 170.559224 35.9055556 165.656597 35.9055556 165.656597 38.9222222 171.414269 38.9222222 171.414269 41.1111111"></polygon> <polygon fill="#FFFFFF" points="181.835821 35.9888889 181.835821 41.1111111 179.431701 41.1111111 179.431701 35.9888889 175.700597 28.6666667 178.332358 28.6666667 180.647642 33.6666667 182.935164 28.6666667 185.566925 28.6666667"></polygon> <polygon fill="#FFFFFF" points="101.633731 17.4 94.1048955 13.05 86.5816119 8.70555556 86.5816119 8.7 79.0527761 4.35 71.5239403 0 71.5239403 8.7 71.5239403 17.4 79.0527761 21.75 86.5760597 26.0944444 86.5760597 26.0944444 86.5760597 26.0944444 86.5816119 26.0944444 86.5816119 26.0944444 94.1048955 21.75"></polygon> <polygon fill="#FFFFFF" opacity="0.8" points="86.5760597 26.0944444 94.1048955 21.75 101.633731 17.4 101.633731 26.0944444 101.633731 34.7944444 94.1048955 30.4444444"></polygon> <polygon fill="url(#linearGradient-1)" points="94.1048955 30.4444444 86.5760597 26.1111111 86.5760597 43.4944444 86.5760597 43.4944444 79.0527761 47.8388889 71.5239403 52.2222222 71.5239403 69.6222222 79.0527761 65.2722222 86.5816119 60.9222222 86.5816119 60.9222222 94.1048955 56.5777778 101.633731 52.2222222 101.633731 34.7944444"></polygon> <path d="M7.77313433,39.9 C6.88303238,40.7302477 5.69625244,41.1667951 4.48065672,41.1111111 L0,41.1111111 L0,28.6611111 L4.48065672,28.6611111 C5.69338234,28.5975374 6.88045699,29.0261811 7.77313433,29.85 C9.17229851,31.2444444 9.0279403,32.9555556 9.0279403,34.85 C9.0279403,36.7444444 9.15564179,38.5 7.77313433,39.9 Z M6.10746269,31.5944444 C5.65972732,31.062934 4.98481055,30.7779366 4.2918806,30.8277778 L2.42077612,30.8277778 L2.42077612,38.9222222 L4.25301493,38.9222222 C4.94594488,38.9720634 5.62086165,38.687066 6.06859701,38.1555556 C6.51832836,37.6 6.59050746,36.7055556 6.59050746,34.8222222 C6.59050746,32.9388889 6.51832836,32.15 6.06859701,31.5944444 L6.10746269,31.5944444 Z" fill="#FFFFFF"></path> <polygon fill="#FFFFFF" points="13.9361194 41.1111111 13.9361194 28.6611111 16.3568955 28.6611111 16.3568955 41.1111111"></polygon> <path d="M29.3491343,39.7777778 C28.4351917,40.7255434 27.1609637,41.238772 25.8456716,41.1888889 C24.5960352,41.2095291 23.3923596,40.7177346 22.5143284,39.8277778 C21.2595224,38.5722222 21.2928358,37.05 21.2928358,34.8722222 C21.2928358,32.6944444 21.2595224,31.1777778 22.5143284,29.9166667 C23.3888046,29.0220358 24.5953852,28.5310666 25.8456716,28.5611111 C28.2223164,28.4143933 30.2918102,30.169 30.5373134,32.5388889 L28.0943284,32.5388889 C27.9451171,31.4440406 26.9754491,30.6508635 25.8734328,30.7222222 C25.2836186,30.7049415 24.7157137,30.9464452 24.318806,31.3833333 C23.8468657,31.9055556 23.7247164,32.4944444 23.7247164,34.8722222 C23.7247164,37.25 23.8468657,37.8555556 24.318806,38.3833333 C24.7178781,38.815316 25.2859679,39.0508081 25.8734328,39.0277778 C26.5103978,39.0449079 27.1251198,38.7928222 27.5668657,38.3333333 C27.9582904,37.8693502 28.1570056,37.2728483 28.1220896,36.6666667 L28.1220896,36.1944444 L25.8456716,36.1944444 L25.8456716,34.1777778 L30.5373134,34.1777778 L30.5373134,35.9888889 C30.5373134,37.7777778 30.2208358,38.8888889 29.3491343,39.7777778 Z" fill="#FFFFFF"></path> <polygon fill="#FFFFFF" points="35.4343881 41.1111111 35.4343881 28.6611111 37.8607164 28.6611111 37.8607164 41.1111111"></polygon> <polygon fill="#FFFFFF" points="47.9380299 30.8277778 47.9380299 41.1111111 45.5283582 41.1111111 45.5283582 30.8277778 42.269194 30.8277778 42.269194 28.6611111 51.1805373 28.6611111 51.1805373 30.8277778"></polygon> <path d="M61.6298507,41.1111111 L60.8969552,38.8888889 L56.4662687,38.8888889 L55.7167164,41.1111111 L53.1904478,41.1111111 L57.7044179,28.6888889 L59.6032836,28.6888889 L64.1394627,41.1111111 L61.6298507,41.1111111 Z M58.7371343,32.3555556 L57.1658507,36.8722222 L60.2528955,36.8722222 L58.7371343,32.3555556 Z" fill="#FFFFFF"></path> <polygon fill="#FFFFFF" points="68.1148657 41.1111111 68.1148657 28.6611111 70.541194 28.6611111 70.541194 38.9222222 76.1711642 38.9222222 76.1711642 41.1111111"></polygon> </svg>
