<?xml version="1.0" encoding="UTF-8" standalone="no"?>
<svg
   xmlns:dc="http://purl.org/dc/elements/1.1/"
   xmlns:cc="http://creativecommons.org/ns#"
   xmlns:rdf="http://www.w3.org/1999/02/22-rdf-syntax-ns#"
   xmlns:svg="http://www.w3.org/2000/svg"
   xmlns="http://www.w3.org/2000/svg"
   xmlns:sodipodi="http://sodipodi.sourceforge.net/DTD/sodipodi-0.dtd"
   xmlns:inkscape="http://www.inkscape.org/namespaces/inkscape"
   viewBox="0 0 340.15639 340.15592"
   height="340.15591"
   width="340.1564"
   xml:space="preserve"
   id="svg2"
   version="1.1"
   sodipodi:docname="syntax_favicon.svg"
   inkscape:version="0.92.1 r15371"
   inkscape:export-filename="/home/user/Documents/Syntax/syntax_favicon.svg.png"
   inkscape:export-xdpi="90"
   inkscape:export-ydpi="90"><sodipodi:namedview
     pagecolor="#ffffff"
     bordercolor="#666666"
     borderopacity="1"
     objecttolerance="10"
     gridtolerance="10"
     guidetolerance="10"
     inkscape:pageopacity="0"
     inkscape:pageshadow="2"
     inkscape:window-width="1206"
     inkscape:window-height="744"
     id="namedview22"
     showgrid="false"
     inkscape:zoom="0.23331696"
     inkscape:cx="1578.4245"
     inkscape:cy="169.99845"
     inkscape:window-x="627"
     inkscape:window-y="248"
     inkscape:window-maximized="0"
     inkscape:current-layer="svg2" /><metadata
     id="metadata8"><rdf:RDF><cc:Work
         rdf:about=""><dc:format>image/svg+xml</dc:format><dc:type
           rdf:resource="http://purl.org/dc/dcmitype/StillImage" /></cc:Work></rdf:RDF></metadata><defs
     id="defs6" /><path
     id="path14"
     style="fill:#ffffff;fill-opacity:1;fill-rule:nonzero;stroke:none;stroke-width:0.13333333"
     d="m 321.25999,340.1559 h 18.8964 V 226.77097 h -18.8964 z"
     inkscape:connector-curvature="0" /><path
     id="path16"
     style="fill:#ffffff;fill-opacity:1;fill-rule:nonzero;stroke:none;stroke-width:0.13333333"
     d="M 226.77066,340.1559 H 340.15612 V 321.26003 H 226.77066 Z"
     inkscape:connector-curvature="0" /><path
     id="path18"
     style="fill:#ffffff;fill-opacity:1;fill-rule:nonzero;stroke:none;stroke-width:0.13333333"
     d="M 0,340.1559 H 113.38546 V 321.26003 H 0 Z"
     inkscape:connector-curvature="0" /><path
     id="path20"
     style="fill:#ffffff;fill-opacity:1;fill-rule:nonzero;stroke:none;stroke-width:0.13333333"
     d="M 0,340.1559 H 18.895866 V 226.77097 H 0 Z"
     inkscape:connector-curvature="0" /><path
     id="path22"
     style="fill:#ffffff;fill-opacity:1;fill-rule:nonzero;stroke:none;stroke-width:0.13333333"
     d="M 0,113.38546 H 18.895866 V 0 H 0 Z"
     inkscape:connector-curvature="0" /><path
     id="path24"
     style="fill:#ffffff;fill-opacity:1;fill-rule:nonzero;stroke:none;stroke-width:0.13333333"
     d="M 0,18.896132 H 113.38546 V 2.667e-4 H 0 Z"
     inkscape:connector-curvature="0" /><path
     id="path26"
     style="fill:#ffffff;fill-opacity:1;fill-rule:nonzero;stroke:none;stroke-width:0.13333333"
     d="M 226.77066,18.896132 H 340.15612 V 2.667e-4 H 226.77066 Z"
     inkscape:connector-curvature="0" /><path
     id="path28"
     style="fill:#ffffff;fill-opacity:1;fill-rule:nonzero;stroke:none;stroke-width:0.13333333"
     d="m 321.25999,113.38546 h 18.8964 V 0 h -18.8964 z"
     inkscape:connector-curvature="0" /><path
     id="path30"
     style="fill:#ffffff;fill-opacity:1;fill-rule:nonzero;stroke:none;stroke-width:0.13333333"
     d="m 169.73466,102.4588 c -9.068,0 -16.532,1.864 -22.40133,5.59866 -5.864,3.73467 -8.79733,9.42134 -8.79733,17.068 0,7.46267 2.93333,13.244 8.79733,17.33333 5.86933,3.91067 18.312,8.176 37.33333,12.796 19.20267,4.62534 33.59867,11.11467 43.20267,19.46934 9.776,8.35333 14.66666,20.708 14.66666,37.06826 0,16.17547 -6.13466,29.33334 -18.4,39.4624 -12.26666,10.136 -28.35466,15.20427 -48.26666,15.20427 -29.156,0 -55.0256,-10.04853 -77.604266,-30.13653 L 118,212.58813 c 18.844,16.36 38.40133,24.5376 58.66666,24.5376 10.136,0 18.136,-2.13654 24,-6.4016 6.04667,-4.44267 9.068,-10.224 9.068,-17.33334 0,-7.292 -2.844,-12.89066 -8.532,-16.80266 -5.51466,-4.088 -15.11466,-7.73467 -28.80133,-10.932 -13.688,-3.37467 -24.08933,-6.40134 -31.19867,-9.068 -7.11466,-2.844 -13.42146,-6.48934 -18.9376,-10.932 -11.01973,-8.35467 -16.53013,-21.156 -16.53013,-38.40133 0,-17.244 6.22387,-30.489335 18.66667,-39.734668 12.61973,-9.421333 28.17706,-14.129333 46.6664,-14.129333 11.91066,0 23.73466,1.953333 35.46799,5.864 11.72934,3.911999 21.86534,9.422666 30.396,16.537332 l -16.796,23.727999 c -5.51066,-4.97333 -12.98,-9.06133 -22.40133,-12.26533 -9.42266,-3.19734 -18.756,-4.796 -28,-4.796 z"
     inkscape:connector-curvature="0" /></svg>
